<svg width="192" height="107" viewBox="0 0 192 107" fill="none" xmlns="http://www.w3.org/2000/svg">
<path d="M115 94.5L87 106L58 88.5V84L56 82.5H52.5L47 79L45.5 76H42L36 73L34.5 70H31L27.5 66.5L24 68L2.5 55L1.5 33L14.5 29.5V26.5L18.5 25.5L22 26.5L29 24.5V20.5L34.5 18.5L36 19.5L37.5 18.5V16.5H40H41.5L65.5 9.5V8L76 6.5L81 8L86.5 6.5V4L90.5 2.5L93 4L103 1L124.5 12.5L127.5 11.5L160.5 29V36L162.5 35L191.5 50.5V67.5L181 70.5V72L173 74L168.5 75H167L162.5 72.5V76.5L145.5 84L139.5 85.5L134.5 87L133 88.5L128.5 90L127 91.5H123L118.5 93.5L115 94.5Z" fill="#FED400" fill-opacity="0.4" stroke="#FED400"/>
</svg>
