<svg width="212" height="125" viewBox="0 0 212 125" fill="none" xmlns="http://www.w3.org/2000/svg">
<path d="M120 115L103.5 123.5L68.5 102.5V97H66.5L65.5 94.5L62.5 96L42.5 84L40 80.5L33 79V76L28.5 77.5L2.5 63.5L1 40L15.5 34.5L16.5 30H20L22.5 31.5L30.5 29V25.5L33 23H38H40V21L45.5 19H50.5L79 7.5L84 10L90 7.5V4.5L94 3.5L96 4.5L106.5 1.5L131.5 14.5H135.5L174.5 34.5V41.5H177L211 60V77L193.5 86L195 87.5V89L189.5 91L183.5 87.5L180 89L177 91L163 97.5H160L150.5 101V102.5L137.5 108.5H131V110H128.5L127.5 112L125 114H124H122V116H121L120 115Z" fill="#FED400" fill-opacity="0.4" stroke="#FED400"/>
</svg>
