<svg width="224" height="140" viewBox="0 0 224 140" fill="none" xmlns="http://www.w3.org/2000/svg">
<path d="M99.5 139L65.5 115.5V110L63 107.5L59 108L31.5 88V85.5L27 87L2.5 70.5L1 45L17 40L17.5 36.5L21.5 35L24 36.5L34 33V28.5L44 25.5V24.5L46.5 23H49.5L76 12.5L77.5 12H80.5L88.5 8.5L93 11L102 8.5L101 5.5L106 3.5L109 5.5L121 1L126.5 5H128.5L132.5 7V9.5H136L138.5 10.5V12.5H141.5L144.5 14V16H147.5L157.5 22H160L166.5 26V28L170.5 30.5H173L179 34V35L186.5 39.5V48L189.5 47L223 67.5L223.5 86L202 96L203.5 97.5V99.5L198 101.5L188 94.5V100.5L167 110L165.5 109L153.5 114V115.5L136 123H132L129.5 124.5H127V126L124.5 127V128.5L122.5 129.5L120.5 128.5V130.5L118 131.5L117 130.5L99.5 139Z" fill="#FED400" fill-opacity="0.4" stroke="#FED400"/>
</svg>
