<svg width="169" height="105" viewBox="0 0 169 105" fill="none" xmlns="http://www.w3.org/2000/svg">
<path d="M114 94.5L90 104L80.5 99.5V97.5L76.5 98L74 94.5H72.5H70L68.5 91.5H66.5L60.5 89.5V86.5L56 85.5V83.5H52.5L48 81.5L46.5 79H43L38 76.5L37 74.5L34 75L31.5 72.5V69L27.5 71L22.5 70L21.5 68H17.5L16 65H12L10.5 62.5H5.5L4.5 60L2.5 59.5L1.5 36L110.5 1.5L120 5.5L123.5 4.5L151 17L156.5 15.5L168 21V49.5L165 52V77L151 82L147.5 79V82L125 91.5L117.5 93.5L114 94.5Z" fill="#FED400" fill-opacity="0.4" stroke="#FED400"/>
</svg>
