<svg width="137" height="28" viewBox="0 0 137 28" fill="none" xmlns="http://www.w3.org/2000/svg">
<path d="M0 0V7.15811L7.1278 0H0Z" fill="white"/>
<path d="M0 17.8296L17.228 0.530801C16.0653 0.181995 14.7105 0 13.1637 0H12.6329L0 12.6834V17.8296Z" fill="white"/>
<path d="M23.7239 14.8874C23.1678 13.7045 22.3186 12.739 21.1862 11.9958C22.172 10.6967 22.6674 9.17507 22.6674 7.4462C22.6674 6.38967 22.4753 5.40392 22.0911 4.49399C21.7827 3.75593 21.3278 3.09875 20.7515 2.52246L0 23.3548V27.2473H15.0543C16.6719 27.2473 18.0773 27.0501 19.2703 26.6659C20.4633 26.2767 21.4491 25.7206 22.2326 24.9927C23.0162 24.2647 23.5975 23.3902 23.9817 22.369C24.3659 21.3479 24.558 20.2004 24.558 18.9366C24.558 17.4251 24.2799 16.0804 23.7239 14.8924" fill="white"/>
<path d="M85.9026 7.99219H89.6535L98.0957 27.2979H94.375L92.9798 24.0525H82.7836L81.4338 27.2979H77.7031L85.8976 7.99219H85.9026ZM91.5896 20.8273L87.8135 12.0565L84.1383 20.8273H91.5896Z" fill="white"/>
<path d="M96.6299 7.99219H100.548L106.033 22.7128L111.517 7.99219H115.435L107.787 27.2928H104.278L96.6299 7.99219Z" fill="white"/>
<path d="M117.032 17.5871C117.032 16.1312 117.275 14.7966 117.76 13.5834C118.245 12.3701 118.923 11.3338 119.797 10.4643C120.672 9.59485 121.723 8.9225 122.947 8.44732C124.17 7.97213 125.53 7.72949 127.016 7.72949C128.502 7.72949 129.852 7.96708 131.08 8.44732C132.309 8.92756 133.36 9.5999 134.235 10.4643C135.109 11.3338 135.787 12.3752 136.272 13.5834C136.757 14.7915 137 16.1261 137 17.5871C137 19.048 136.757 20.3977 136.272 21.6211C135.787 22.8444 135.109 23.8959 134.235 24.7755C133.36 25.6551 132.309 26.3426 131.08 26.833C129.852 27.3233 128.497 27.566 127.016 27.566C125.535 27.566 124.17 27.3233 122.947 26.833C121.723 26.3426 120.672 25.6602 119.797 24.7755C118.923 23.8959 118.245 22.8444 117.76 21.6211C117.275 20.3977 117.032 19.0531 117.032 17.5871ZM120.571 17.5871C120.571 18.5829 120.733 19.4827 121.056 20.2815C121.38 21.0802 121.83 21.7626 122.406 22.3237C122.982 22.8899 123.665 23.3196 124.448 23.628C125.232 23.9313 126.086 24.083 127.011 24.083C127.936 24.083 128.791 23.9313 129.574 23.628C130.363 23.3247 131.04 22.8899 131.611 22.3237C132.188 21.7576 132.638 21.0802 132.961 20.2815C133.29 19.4827 133.451 18.5829 133.451 17.5871C133.451 16.5912 133.29 15.6964 132.961 14.9078C132.632 14.1192 132.183 13.4469 131.611 12.9009C131.04 12.355 130.358 11.9354 129.574 11.6472C128.791 11.3591 127.936 11.2176 127.011 11.2176C126.086 11.2176 125.232 11.3642 124.448 11.6472C123.665 11.9354 122.982 12.355 122.406 12.9009C121.83 13.4469 121.38 14.1192 121.056 14.9078C120.733 15.6964 120.571 16.5912 120.571 17.5871Z" fill="white"/>
<path d="M73.5834 20.0641C74.0737 19.6395 74.4832 19.1542 74.8068 18.6133C75.1303 18.0673 75.3679 17.4758 75.5246 16.8288C75.6813 16.1817 75.7571 15.4993 75.7571 14.7814C75.7571 13.7198 75.6004 12.7695 75.2819 11.9303C74.9635 11.0912 74.4832 10.3784 73.8361 9.79199C73.1891 9.20559 72.3702 8.76074 71.3895 8.45237C70.4088 8.14401 69.2461 7.9873 67.9064 7.9873H59.8232V27.293H63.3619V11.3945H67.9924C69.3421 11.3945 70.3481 11.6877 71.0204 12.2791C71.6877 12.8655 72.0264 13.7047 72.0264 14.7814C72.0264 15.3324 71.9455 15.8329 71.7737 16.2828C71.6068 16.7327 71.3541 17.1119 71.0154 17.4253C70.6767 17.7387 70.2571 17.9814 69.7516 18.1532C69.2511 18.3251 68.6647 18.4111 67.9924 18.4111H65.9552L68.0278 21.8081L71.3086 27.293H75.6408L71.8444 21.1156C72.5066 20.8375 73.0829 20.4837 73.5733 20.059" fill="white"/>
<path d="M50.8197 23.8199H44.3845V11.5055H48.8634C50.0058 11.5055 50.936 12.4357 50.936 13.5782V13.6338C50.936 14.2606 50.6782 14.6903 50.2181 15.2009L47.0182 18.4463H50.8197C52.1998 18.4463 53.0945 19.7101 53.0945 21.1103C53.0945 22.5106 52.2453 23.8199 50.8197 23.8199ZM53.6708 16.1967C53.6708 16.1967 53.7365 16.0906 53.8326 15.9086C54.141 15.3424 54.333 14.8167 54.4089 14.205C54.5908 13.1737 54.5302 11.8543 53.6809 10.5147C53.3827 9.9991 53.0035 9.54413 52.5384 9.16499C52.5384 9.16499 52.5334 9.15994 52.5284 9.15488C51.6235 8.432 50.4001 7.99725 48.8684 7.99725H40.5274L40.4971 7.99219V27.3282H50.8248C54.0146 27.3282 56.5017 24.7197 56.6079 21.5148C56.6736 19.523 56.072 17.3392 53.6759 16.1967" fill="white"/>
</svg>
