<svg width="304" height="60" viewBox="0 0 304 60" fill="none" xmlns="http://www.w3.org/2000/svg">
<path d="M160.943 39.3017L149.055 12.9758L137.481 39.3017H160.943ZM143.039 0.777344H154.857L181.451 58.7294H169.737L165.339 48.9774H133.219L128.963 58.7294H117.214L143.036 0.777344H143.039Z" fill="black"/>
<path d="M176.833 0.777344H189.182L206.451 44.9753L223.726 0.777344H236.072L211.977 58.7322H200.931L176.833 0.777344Z" fill="black"/>
<path d="M252.254 29.5898C252.254 32.5793 252.765 35.2747 253.783 37.6731C254.804 40.0715 256.222 42.1163 258.041 43.8105C259.858 45.5046 262.003 46.8085 264.478 47.722C266.953 48.6356 269.645 49.0938 272.551 49.0938C275.456 49.0938 278.151 48.6356 280.623 47.722C283.098 46.8057 285.238 45.5018 287.042 43.8105C288.849 42.1163 290.268 40.0715 291.301 37.6731C292.331 35.2747 292.85 32.5821 292.85 29.5898C292.85 26.5974 292.334 23.9162 291.301 21.5432C290.268 19.1703 288.849 17.1622 287.042 15.5189C285.238 13.8757 283.098 12.6199 280.623 11.7544C278.151 10.8918 275.459 10.4563 272.551 10.4563C269.642 10.4563 266.953 10.889 264.478 11.7544C262.003 12.6199 259.858 13.8728 258.041 15.5189C256.225 17.1622 254.804 19.1703 253.783 21.5432C252.765 23.9162 252.254 26.5974 252.254 29.5898ZM241.102 29.5898C241.102 25.2144 241.864 21.2095 243.39 17.5751C244.912 13.9407 247.055 10.8211 249.809 8.21058C252.563 5.60288 255.872 3.58347 259.73 2.14951C263.588 0.715561 267.862 0 272.551 0C277.24 0 281.487 0.715561 285.356 2.14951C289.226 3.58347 292.538 5.60288 295.295 8.21058C298.049 10.8211 300.189 13.9407 301.715 17.5751C303.237 21.2095 304 25.2144 304 29.5898C304 33.9651 303.237 38.0238 301.715 41.6949C300.189 45.366 298.049 48.5253 295.295 51.1669C292.538 53.8142 289.226 55.8704 285.356 57.3411C281.487 58.8118 277.219 59.5472 272.551 59.5472C267.882 59.5472 263.588 58.8118 259.73 57.3411C255.872 55.8704 252.563 53.8142 249.809 51.1669C247.055 48.5224 244.912 45.366 243.39 41.6949C241.864 38.0238 241.102 33.9878 241.102 29.5898Z" fill="black"/>
<path d="M104.236 37.0221C105.785 35.7494 107.067 34.2956 108.088 32.6665C109.106 31.0346 109.863 29.2471 110.356 27.3097C110.848 25.3667 111.095 23.3246 111.095 21.1723C111.095 17.9848 110.599 15.1282 109.602 12.6082C108.605 10.0853 107.085 7.9471 105.046 6.19355C103.005 4.43717 100.437 3.09656 97.3392 2.16887C94.2438 1.24119 90.5846 0.777344 86.3645 0.777344H60.9072V58.7322H72.06V11.013H86.6464C90.8903 11.013 94.0687 11.8954 96.1817 13.6631C98.2918 15.4308 99.3454 17.9339 99.3454 21.1694C99.3454 22.8268 99.0842 24.3287 98.553 25.6749C98.0277 27.0212 97.2294 28.1667 96.161 29.1057C95.0926 30.0447 93.769 30.7744 92.1872 31.2948C90.6024 31.8152 88.7565 32.0754 86.6464 32.0754H80.2272L86.7533 42.2714L97.0958 58.735H110.744L98.7844 40.1955C100.874 39.3555 102.69 38.2977 104.236 37.0249" fill="black"/>
<path d="M41.5097 25.4091C41.5097 25.4091 41.7234 25.0951 42.0261 24.538C42.9966 22.8381 43.602 21.2628 43.8335 19.4215C44.4062 16.3274 44.2133 12.3621 41.5364 8.33741C40.6016 6.79033 39.4026 5.42142 37.9306 4.2901C37.9217 4.28162 37.9128 4.27313 37.901 4.26465C35.0519 2.09251 31.2028 0.794315 26.3683 0.794315L0.0949607 0.777344H0V58.8199H32.5294C42.5751 58.8227 50.4159 50.9911 50.7483 41.3749C50.956 35.393 49.0567 28.837 41.5068 25.4091H41.5097ZM32.5294 48.2929H12.2567V11.3269H26.3713C29.9682 11.3269 32.8944 14.1156 32.8944 17.5436V17.7076C32.8944 19.5856 32.0901 20.8838 30.627 22.4082L20.5545 32.1574H32.5294C36.883 32.1574 39.6994 35.953 39.6994 40.1559C39.6994 44.3587 37.0195 48.2929 32.5294 48.2929Z" fill="black"/>
</svg>
