<svg width="90" height="19" viewBox="0 0 90 19" fill="none" xmlns="http://www.w3.org/2000/svg">
<path d="M0 0.890625V5.59304L4.6825 0.890625H0Z" fill="black"/>
<path d="M0 12.6035L11.3177 1.23933C10.5539 1.01018 9.66386 0.890625 8.64766 0.890625H8.29897L0 9.22279V12.6035Z" fill="black"/>
<path d="M15.585 10.6708C15.2197 9.89371 14.6618 9.25942 13.9179 8.77124C14.5655 7.91777 14.891 6.91818 14.891 5.78242C14.891 5.08835 14.7648 4.44078 14.5124 3.84301C14.3098 3.35816 14.0109 2.92644 13.6324 2.54785L0 16.2333V18.7904H9.88968C10.9524 18.7904 11.8756 18.6609 12.6593 18.4085C13.443 18.1528 14.0906 17.7875 14.6054 17.3093C15.1201 16.8311 15.502 16.2566 15.7544 15.5857C16.0068 14.9149 16.133 14.1611 16.133 13.3308C16.133 12.3379 15.9503 11.4545 15.585 10.6741" fill="black"/>
<path d="M56.4324 6.14062H58.8965L64.4425 18.8232H61.9983L61.0817 16.6912H54.3834L53.4967 18.8232H51.0459L56.4291 6.14062H56.4324ZM60.1684 14.5724L57.6877 8.81064L55.2734 14.5724H60.1684Z" fill="black"/>
<path d="M63.4795 6.14062H66.0532L69.6564 15.8111L73.2596 6.14062H75.8333L70.8087 18.8199H68.504L63.4795 6.14062Z" fill="black"/>
<path d="M76.8828 12.4445C76.8828 11.4881 77.0422 10.6114 77.361 9.81436C77.6798 9.01734 78.1248 8.33656 78.6993 7.76536C79.2739 7.19417 79.9646 6.75248 80.7683 6.44031C81.5719 6.12815 82.4653 5.96875 83.4416 5.96875C84.418 5.96875 85.3046 6.12483 86.1116 6.44031C86.9186 6.7558 87.6093 7.19749 88.1838 7.76536C88.7584 8.33656 89.2034 9.02066 89.5222 9.81436C89.841 10.6081 90.0004 11.4848 90.0004 12.4445C90.0004 13.4043 89.841 14.2909 89.5222 15.0946C89.2034 15.8983 88.7584 16.589 88.1838 17.1669C87.6093 17.7447 86.9186 18.1963 86.1116 18.5185C85.3046 18.8406 84.4146 19 83.4416 19C82.4686 19 81.5719 18.8406 80.7683 18.5185C79.9646 18.1963 79.2739 17.748 78.6993 17.1669C78.1248 16.589 77.6798 15.8983 77.361 15.0946C77.0422 14.2909 76.8828 13.4076 76.8828 12.4445ZM79.2074 12.4445C79.2074 13.0987 79.3137 13.6899 79.5262 14.2146C79.7388 14.7393 80.0344 15.1876 80.4129 15.5562C80.7915 15.9282 81.2398 16.2104 81.7546 16.413C82.2693 16.6123 82.8306 16.7119 83.4383 16.7119C84.046 16.7119 84.6072 16.6123 85.122 16.413C85.64 16.2138 86.085 15.9282 86.4603 15.5562C86.8389 15.1843 87.1345 14.7393 87.347 14.2146C87.5629 13.6899 87.6691 13.0987 87.6691 12.4445C87.6691 11.7903 87.5629 11.2025 87.347 10.6844C87.1311 10.1664 86.8356 9.72469 86.4603 9.36603C86.085 9.00738 85.6367 8.73175 85.122 8.54246C84.6072 8.35316 84.046 8.26018 83.4383 8.26018C82.8306 8.26018 82.2693 8.35648 81.7546 8.54246C81.2398 8.73175 80.7915 9.00738 80.4129 9.36603C80.0344 9.72469 79.7388 10.1664 79.5262 10.6844C79.3137 11.2025 79.2074 11.7903 79.2074 12.4445Z" fill="black"/>
<path d="M48.3393 14.0713C48.6614 13.7924 48.9305 13.4736 49.143 13.1182C49.3555 12.7596 49.5116 12.371 49.6146 11.946C49.7175 11.5209 49.7673 11.0726 49.7673 10.601C49.7673 9.9036 49.6644 9.27927 49.4552 8.728C49.2459 8.17673 48.9304 7.70848 48.5054 7.32325C48.0803 6.93803 47.5423 6.64579 46.898 6.44321C46.2538 6.24064 45.49 6.1377 44.6099 6.1377H39.2998V18.8202H41.6244V8.37599H44.6664C45.5531 8.37599 46.2139 8.5686 46.6556 8.95714C47.094 9.34237 47.3165 9.89364 47.3165 10.601C47.3165 10.963 47.2634 11.2917 47.1504 11.5873C47.0409 11.8829 46.8748 12.1319 46.6523 12.3378C46.4298 12.5437 46.1542 12.7031 45.8221 12.816C45.4933 12.929 45.1081 12.9854 44.6664 12.9854H43.3281L44.6896 15.2171L46.8449 18.8202H49.6909L47.1969 14.7621C47.632 14.5794 48.0106 14.347 48.3327 14.068" fill="black"/>
<path d="M33.3848 16.5384H29.1573V8.44866H32.0996C32.8501 8.44866 33.4612 9.05971 33.4612 9.81024V9.84676C33.4612 10.2586 33.2918 10.5408 32.9896 10.8762L30.8875 13.0083H33.3848C34.2914 13.0083 34.8792 13.8385 34.8792 14.7584C34.8792 15.6783 34.3213 16.5384 33.3848 16.5384ZM35.2578 11.5305C35.2578 11.5305 35.301 11.4607 35.3641 11.3412C35.5667 10.9692 35.6928 10.6239 35.7426 10.222C35.8622 9.54456 35.8223 8.67781 35.2644 7.79777C35.0685 7.45903 34.8194 7.16015 34.5139 6.91108C34.5139 6.91108 34.5106 6.90776 34.5073 6.90444C33.9128 6.42955 33.1092 6.14395 32.1029 6.14395H26.6234L26.6035 6.14062V18.8431H33.3881C35.4836 18.8431 37.1175 17.1295 37.1873 15.0241C37.2304 13.7156 36.8352 12.281 35.2611 11.5305" fill="black"/>
</svg>
