<svg width="137" height="28" viewBox="0 0 137 28" fill="none" xmlns="http://www.w3.org/2000/svg">
<path d="M0 0.216797V7.37491L7.1278 0.216797H0Z" fill="black"/>
<path d="M0 18.0464L17.228 0.747598C16.0653 0.398792 14.7105 0.216797 13.1637 0.216797H12.6329L0 12.9002V18.0464Z" fill="black"/>
<path d="M23.7239 15.1042C23.1678 13.9213 22.3186 12.9558 21.1862 12.2126C22.172 10.9135 22.6674 9.39186 22.6674 7.663C22.6674 6.60647 22.4753 5.62071 22.0911 4.71078C21.7827 3.97273 21.3278 3.31555 20.7515 2.73926L0 23.5716V27.4641H15.0543C16.6719 27.4641 18.0773 27.2669 19.2703 26.8827C20.4633 26.4935 21.4491 25.9374 22.2326 25.2095C23.0162 24.4815 23.5975 23.607 23.9817 22.5858C24.3659 21.5647 24.558 20.4172 24.558 19.1534C24.558 17.6419 24.2799 16.2972 23.7239 15.1092" fill="black"/>
<path d="M85.9026 8.20898H89.6535L98.0957 27.5147H94.375L92.9798 24.2692H82.7836L81.4338 27.5147H77.7031L85.8976 8.20898H85.9026ZM91.5896 21.0441L87.8135 12.2733L84.1383 21.0441H91.5896Z" fill="black"/>
<path d="M96.6299 8.20898H100.548L106.033 22.9296L111.517 8.20898H115.435L107.787 27.5096H104.278L96.6299 8.20898Z" fill="black"/>
<path d="M117.032 17.8039C117.032 16.348 117.275 15.0134 117.76 13.8002C118.245 12.5869 118.923 11.5506 119.797 10.6811C120.672 9.81165 121.723 9.1393 122.947 8.66411C124.17 8.18893 125.53 7.94629 127.016 7.94629C128.502 7.94629 129.852 8.18387 131.08 8.66411C132.309 9.14435 133.36 9.8167 134.235 10.6811C135.109 11.5506 135.787 12.592 136.272 13.8002C136.757 15.0083 137 16.3429 137 17.8039C137 19.2648 136.757 20.6145 136.272 21.8379C135.787 23.0612 135.109 24.1127 134.235 24.9923C133.36 25.8719 132.309 26.5594 131.08 27.0498C129.852 27.5401 128.497 27.7827 127.016 27.7827C125.535 27.7827 124.17 27.5401 122.947 27.0498C121.723 26.5594 120.672 25.877 119.797 24.9923C118.923 24.1127 118.245 23.0612 117.76 21.8379C117.275 20.6145 117.032 19.2699 117.032 17.8039ZM120.571 17.8039C120.571 18.7997 120.733 19.6995 121.056 20.4983C121.38 21.297 121.83 21.9794 122.406 22.5405C122.982 23.1067 123.665 23.5364 124.448 23.8448C125.232 24.1481 126.086 24.2997 127.011 24.2997C127.936 24.2997 128.791 24.1481 129.574 23.8448C130.363 23.5415 131.04 23.1067 131.611 22.5405C132.188 21.9744 132.638 21.297 132.961 20.4983C133.29 19.6995 133.451 18.7997 133.451 17.8039C133.451 16.808 133.29 15.9132 132.961 15.1246C132.632 14.336 132.183 13.6637 131.611 13.1177C131.04 12.5718 130.358 12.1522 129.574 11.864C128.791 11.5759 127.936 11.4343 127.011 11.4343C126.086 11.4343 125.232 11.581 124.448 11.864C123.665 12.1522 122.982 12.5718 122.406 13.1177C121.83 13.6637 121.38 14.336 121.056 15.1246C120.733 15.9132 120.571 16.808 120.571 17.8039Z" fill="black"/>
<path d="M73.5834 20.2809C74.0737 19.8562 74.4832 19.371 74.8068 18.8301C75.1303 18.2841 75.3679 17.6926 75.5246 17.0456C75.6813 16.3985 75.7571 15.7161 75.7571 14.9982C75.7571 13.9366 75.6004 12.9863 75.2819 12.1471C74.9635 11.308 74.4832 10.5952 73.8361 10.0088C73.1891 9.42238 72.3702 8.97753 71.3895 8.66917C70.4088 8.3608 69.2461 8.2041 67.9064 8.2041H59.8232V27.5098H63.3619V11.6113H67.9924C69.3421 11.6113 70.3481 11.9045 71.0204 12.4959C71.6877 13.0823 72.0264 13.9215 72.0264 14.9982C72.0264 15.5492 71.9455 16.0497 71.7737 16.4996C71.6068 16.9495 71.3541 17.3287 71.0154 17.6421C70.6767 17.9555 70.2571 18.1982 69.7516 18.37C69.2511 18.5419 68.6647 18.6278 67.9924 18.6278H65.9552L68.0278 22.0249L71.3086 27.5098H75.6408L71.8444 21.3323C72.5066 21.0543 73.0829 20.7005 73.5733 20.2758" fill="black"/>
<path d="M50.8197 24.0367H44.3845V11.7223H48.8634C50.0058 11.7223 50.936 12.6525 50.936 13.795V13.8505C50.936 14.4774 50.6782 14.9071 50.2181 15.4177L47.0182 18.6631H50.8197C52.1998 18.6631 53.0945 19.9269 53.0945 21.3271C53.0945 22.7274 52.2453 24.0367 50.8197 24.0367ZM53.6708 16.4135C53.6708 16.4135 53.7365 16.3074 53.8326 16.1254C54.141 15.5592 54.333 15.0335 54.4089 14.4218C54.5908 13.3905 54.5302 12.0711 53.6809 10.7315C53.3827 10.2159 53.0035 9.76092 52.5384 9.38179C52.5384 9.38179 52.5334 9.37674 52.5284 9.37168C51.6235 8.64879 50.4001 8.21404 48.8684 8.21404H40.5274L40.4971 8.20898V27.545H50.8248C54.0146 27.545 56.5017 24.9365 56.6079 21.7315C56.6736 19.7398 56.072 17.556 53.6759 16.4135" fill="black"/>
</svg>
